<svg width="290" height="74" viewBox="0 0 290 74" fill="none" xmlns="http://www.w3.org/2000/svg">
<path d="M243.337 17C243.229 17 243.139 16.964 243.067 16.892C242.995 16.808 242.959 16.712 242.959 16.604C242.959 16.52 242.983 16.442 243.031 16.37L245.677 12.716C245.413 12.776 245.167 12.8 244.939 12.788C244.135 12.764 243.403 12.566 242.743 12.194C242.083 11.822 241.561 11.318 241.177 10.682C240.805 10.046 240.619 9.35 240.619 8.594C240.619 7.838 240.805 7.13 241.177 6.47C241.549 5.798 242.101 5.258 242.833 4.85C243.565 4.43 244.447 4.22 245.479 4.22C246.511 4.22 247.399 4.418 248.143 4.814C248.887 5.198 249.445 5.72 249.817 6.38C250.201 7.028 250.393 7.742 250.393 8.522C250.393 9.002 250.315 9.458 250.159 9.89C250.003 10.322 249.823 10.7 249.619 11.024C249.427 11.336 249.151 11.744 248.791 12.248L245.623 16.64C245.551 16.748 245.467 16.838 245.371 16.91C245.287 16.97 245.167 17 245.011 17H243.337ZM245.497 10.88C246.157 10.88 246.709 10.676 247.153 10.268C247.609 9.848 247.837 9.29 247.837 8.594C247.837 7.898 247.609 7.34 247.153 6.92C246.709 6.5 246.157 6.29 245.497 6.29C244.837 6.29 244.279 6.5 243.823 6.92C243.379 7.34 243.157 7.898 243.157 8.594C243.157 9.29 243.379 9.848 243.823 10.268C244.267 10.676 244.825 10.88 245.497 10.88ZM254.447 17C254.339 17 254.249 16.964 254.177 16.892C254.105 16.808 254.069 16.712 254.069 16.604C254.069 16.52 254.093 16.442 254.141 16.37L256.787 12.716C256.523 12.776 256.277 12.8 256.049 12.788C255.245 12.764 254.513 12.566 253.853 12.194C253.193 11.822 252.671 11.318 252.287 10.682C251.915 10.046 251.729 9.35 251.729 8.594C251.729 7.838 251.915 7.13 252.287 6.47C252.659 5.798 253.211 5.258 253.943 4.85C254.675 4.43 255.557 4.22 256.589 4.22C257.621 4.22 258.509 4.418 259.253 4.814C259.997 5.198 260.555 5.72 260.927 6.38C261.311 7.028 261.503 7.742 261.503 8.522C261.503 9.002 261.425 9.458 261.269 9.89C261.113 10.322 260.933 10.7 260.729 11.024C260.537 11.336 260.261 11.744 259.901 12.248L256.733 16.64C256.661 16.748 256.577 16.838 256.481 16.91C256.397 16.97 256.277 17 256.121 17H254.447ZM256.607 10.88C257.267 10.88 257.819 10.676 258.263 10.268C258.719 9.848 258.947 9.29 258.947 8.594C258.947 7.898 258.719 7.34 258.263 6.92C257.819 6.5 257.267 6.29 256.607 6.29C255.947 6.29 255.389 6.5 254.933 6.92C254.489 7.34 254.267 7.898 254.267 8.594C254.267 9.29 254.489 9.848 254.933 10.268C255.377 10.676 255.935 10.88 256.607 10.88ZM265.556 17C265.448 17 265.358 16.964 265.286 16.892C265.214 16.808 265.178 16.712 265.178 16.604C265.178 16.52 265.202 16.442 265.25 16.37L267.896 12.716C267.632 12.776 267.386 12.8 267.158 12.788C266.354 12.764 265.622 12.566 264.962 12.194C264.302 11.822 263.78 11.318 263.396 10.682C263.024 10.046 262.838 9.35 262.838 8.594C262.838 7.838 263.024 7.13 263.396 6.47C263.768 5.798 264.32 5.258 265.052 4.85C265.784 4.43 266.666 4.22 267.698 4.22C268.73 4.22 269.618 4.418 270.362 4.814C271.106 5.198 271.664 5.72 272.036 6.38C272.42 7.028 272.612 7.742 272.612 8.522C272.612 9.002 272.534 9.458 272.378 9.89C272.222 10.322 272.042 10.7 271.838 11.024C271.646 11.336 271.37 11.744 271.01 12.248L267.842 16.64C267.77 16.748 267.686 16.838 267.59 16.91C267.506 16.97 267.386 17 267.23 17H265.556ZM267.716 10.88C268.376 10.88 268.928 10.676 269.372 10.268C269.828 9.848 270.056 9.29 270.056 8.594C270.056 7.898 269.828 7.34 269.372 6.92C268.928 6.5 268.376 6.29 267.716 6.29C267.056 6.29 266.498 6.5 266.042 6.92C265.598 7.34 265.376 7.898 265.376 8.594C265.376 9.29 265.598 9.848 266.042 10.268C266.486 10.676 267.044 10.88 267.716 10.88ZM279.969 17C279.849 17 279.747 16.958 279.663 16.874C279.579 16.79 279.537 16.688 279.537 16.568V14.588H278.169C278.049 14.588 277.947 14.546 277.863 14.462C277.779 14.378 277.737 14.276 277.737 14.156V13.598C277.737 13.478 277.779 13.376 277.863 13.292C277.947 13.208 278.049 13.166 278.169 13.166H279.537V12.194H278.169C278.049 12.194 277.947 12.152 277.863 12.068C277.779 11.984 277.737 11.882 277.737 11.762V10.79C277.737 10.658 277.779 10.556 277.863 10.484C277.947 10.4 278.049 10.358 278.169 10.358H279.537V4.85C279.537 4.718 279.573 4.61 279.645 4.526C279.729 4.442 279.837 4.4 279.969 4.4H284.775C286.227 4.4 287.367 4.742 288.195 5.426C289.023 6.098 289.437 7.088 289.437 8.396C289.437 9.656 289.023 10.604 288.195 11.24C287.367 11.876 286.227 12.194 284.775 12.194H282.111V13.166H285.045C285.165 13.166 285.267 13.208 285.351 13.292C285.435 13.376 285.477 13.478 285.477 13.598V14.156C285.477 14.276 285.435 14.378 285.351 14.462C285.279 14.546 285.177 14.588 285.045 14.588H282.111V16.568C282.111 16.688 282.069 16.79 281.985 16.874C281.901 16.958 281.793 17 281.661 17H279.969ZM284.685 10.358C285.381 10.358 285.915 10.196 286.287 9.872C286.671 9.536 286.863 9.044 286.863 8.396C286.863 7.772 286.683 7.286 286.323 6.938C285.963 6.578 285.417 6.398 284.685 6.398H282.075V10.358H284.685Z" fill="#808080"/>
<path d="M240.025 11.384H289.995V12.284H240.025V11.384Z" fill="#808080"/>
<path d="M183.913 63.43C181.505 63.43 179.398 62.9713 177.592 62.054C175.786 61.1367 174.396 59.8897 173.421 58.313C172.447 56.7077 171.959 54.9017 171.959 52.895C171.959 50.3437 173.063 47.563 175.27 44.553L183.139 33.76C183.311 33.502 183.498 33.3013 183.698 33.158C183.928 32.986 184.229 32.9 184.601 32.9H188.6C188.858 32.9 189.073 33.0003 189.245 33.201C189.417 33.373 189.503 33.588 189.503 33.846C189.503 33.9893 189.432 34.1757 189.288 34.405L183.268 42.747C183.842 42.6037 184.458 42.532 185.117 42.532C187.038 42.5893 188.801 43.0767 190.406 43.994C192.04 44.8827 193.33 46.101 194.276 47.649C195.251 49.197 195.738 50.917 195.738 52.809C195.738 54.7297 195.251 56.507 194.276 58.141C193.33 59.7463 191.954 61.0363 190.148 62.011C188.371 62.957 186.293 63.43 183.913 63.43ZM183.87 58.485C185.504 58.485 186.88 57.9977 187.998 57.023C189.116 56.0197 189.675 54.6293 189.675 52.852C189.675 51.1033 189.116 49.7417 187.998 48.767C186.88 47.7637 185.504 47.262 183.87 47.262C182.236 47.262 180.86 47.7637 179.742 48.767C178.624 49.7417 178.065 51.1033 178.065 52.852C178.065 54.6293 178.624 56.0197 179.742 57.023C180.86 57.9977 182.236 58.485 183.87 58.485ZM205.067 63C204.809 63 204.594 62.914 204.422 62.742C204.25 62.5413 204.164 62.312 204.164 62.054C204.164 61.8533 204.222 61.667 204.336 61.495L210.657 52.766C210.027 52.9093 209.439 52.9667 208.894 52.938C206.974 52.8807 205.225 52.4077 203.648 51.519C202.072 50.6303 200.825 49.4263 199.907 47.907C199.019 46.3877 198.574 44.725 198.574 42.919C198.574 41.113 199.019 39.4217 199.907 37.845C200.796 36.2397 202.115 34.9497 203.863 33.975C205.612 32.9717 207.719 32.47 210.184 32.47C212.65 32.47 214.771 32.943 216.548 33.889C218.326 34.8063 219.659 36.0533 220.547 37.63C221.465 39.178 221.923 40.8837 221.923 42.747C221.923 43.8937 221.737 44.983 221.364 46.015C220.992 47.047 220.562 47.95 220.074 48.724C219.616 49.4693 218.956 50.444 218.096 51.648L210.528 62.14C210.356 62.398 210.156 62.613 209.926 62.785C209.726 62.9283 209.439 63 209.066 63H205.067ZM210.227 48.38C211.804 48.38 213.123 47.8927 214.183 46.918C215.273 45.9147 215.817 44.5817 215.817 42.919C215.817 41.2563 215.273 39.9233 214.183 38.92C213.123 37.9167 211.804 37.415 210.227 37.415C208.651 37.415 207.318 37.9167 206.228 38.92C205.168 39.9233 204.637 41.2563 204.637 42.919C204.637 44.5817 205.168 45.9147 206.228 46.918C207.289 47.8927 208.622 48.38 210.227 48.38ZM231.606 63C231.348 63 231.133 62.914 230.961 62.742C230.789 62.5413 230.703 62.312 230.703 62.054C230.703 61.8533 230.761 61.667 230.875 61.495L237.196 52.766C236.566 52.9093 235.978 52.9667 235.433 52.938C233.513 52.8807 231.764 52.4077 230.187 51.519C228.611 50.6303 227.364 49.4263 226.446 47.907C225.558 46.3877 225.113 44.725 225.113 42.919C225.113 41.113 225.558 39.4217 226.446 37.845C227.335 36.2397 228.654 34.9497 230.402 33.975C232.151 32.9717 234.258 32.47 236.723 32.47C239.189 32.47 241.31 32.943 243.087 33.889C244.865 34.8063 246.198 36.0533 247.086 37.63C248.004 39.178 248.462 40.8837 248.462 42.747C248.462 43.8937 248.276 44.983 247.903 46.015C247.531 47.047 247.101 47.95 246.613 48.724C246.155 49.4693 245.495 50.444 244.635 51.648L237.067 62.14C236.895 62.398 236.695 62.613 236.465 62.785C236.265 62.9283 235.978 63 235.605 63H231.606ZM236.766 48.38C238.343 48.38 239.662 47.8927 240.722 46.918C241.812 45.9147 242.356 44.5817 242.356 42.919C242.356 41.2563 241.812 39.9233 240.722 38.92C239.662 37.9167 238.343 37.415 236.766 37.415C235.19 37.415 233.857 37.9167 232.767 38.92C231.707 39.9233 231.176 41.2563 231.176 42.919C231.176 44.5817 231.707 45.9147 232.767 46.918C233.828 47.8927 235.161 48.38 236.766 48.38ZM266.037 63C265.75 63 265.506 62.8997 265.306 62.699C265.105 62.4983 265.005 62.2547 265.005 61.968V57.238H261.737C261.45 57.238 261.206 57.1377 261.006 56.937C260.805 56.7363 260.705 56.4927 260.705 56.206V54.873C260.705 54.5863 260.805 54.3427 261.006 54.142C261.206 53.9413 261.45 53.841 261.737 53.841H265.005V51.519H261.737C261.45 51.519 261.206 51.4187 261.006 51.218C260.805 51.0173 260.705 50.7737 260.705 50.487V48.165C260.705 47.8497 260.805 47.606 261.006 47.434C261.206 47.2333 261.45 47.133 261.737 47.133H265.005V33.975C265.005 33.6597 265.091 33.4017 265.263 33.201C265.463 33.0003 265.721 32.9 266.037 32.9H277.518C280.986 32.9 283.71 33.717 285.688 35.351C287.666 36.9563 288.655 39.3213 288.655 42.446C288.655 45.456 287.666 47.7207 285.688 49.24C283.71 50.7593 280.986 51.519 277.518 51.519H271.154V53.841H278.163C278.449 53.841 278.693 53.9413 278.894 54.142C279.094 54.3427 279.195 54.5863 279.195 54.873V56.206C279.195 56.4927 279.094 56.7363 278.894 56.937C278.722 57.1377 278.478 57.238 278.163 57.238H271.154V61.968C271.154 62.2547 271.053 62.4983 270.853 62.699C270.652 62.8997 270.394 63 270.079 63H266.037ZM277.303 47.133C278.965 47.133 280.241 46.746 281.13 45.972C282.047 45.1693 282.506 43.994 282.506 42.446C282.506 40.9553 282.076 39.7943 281.216 38.963C280.356 38.103 279.051 37.673 277.303 37.673H271.068V47.133H277.303Z" fill="#941B0C"/>
</svg>
